HIERARCHY
ROOT Hips
{
  OFFSET -4.35178 90.3298 111.633
  CHANNELS 6 Xposition Yposition Zposition Zrotation Xrotation Yrotation
  JOINT LeftUpLeg
  {
    OFFSET 0.103456 1.85784 10.5485
    CHANNELS 6 Xposition Yposition Zposition Zrotation Xrotation Yrotation
    JOINT LeftLeg
    {
      OFFSET 43.5 -4.2e-05 0
      CHANNELS 6 Xposition Yposition Zposition Zrotation Xrotation Yrotation
      JOINT LeftFoot
      {
        OFFSET 42.3722 1.9e-05 0
        CHANNELS 6 Xposition Yposition Zposition Zrotation Xrotation Yrotation
        JOINT LeftToe
        {
          OFFSET 17.3 0 0
          CHANNELS 6 Xposition Yposition Zposition Zrotation Xrotation Yrotation
          End Site
          {
            OFFSET 0 0 0
          }
        }
      }
    }
  }
  JOINT RightUpLeg
  {
    OFFSET 0.103456 1.85782 -10.5485
    CHANNELS 6 Xposition Yposition Zposition Zrotation Xrotation Yrotation
    JOINT RightLeg
    {
      OFFSET 43.5 -2.7e-05 0
      CHANNELS 6 Xposition Yposition Zposition Zrotation Xrotation Yrotation
      JOINT RightFoot
      {
        OFFSET 42.3723 0 0
        CHANNELS 6 Xposition Yposition Zposition Zrotation Xrotation Yrotation
        JOINT RightToe
        {
          OFFSET 17.3 0 1.7e-05
          CHANNELS 6 Xposition Yposition Zposition Zrotation Xrotation Yrotation
          End Site
          {
            OFFSET 0 0 0
          }
        }
      }
    }
  }
  JOINT Spine
  {
    OFFSET 6.90197 -2.60373 0
    CHANNELS 6 Xposition Yposition Zposition Zrotation Xrotation Yrotation
    JOINT Spine1
    {
      OFFSET 12.5881 0 0
      CHANNELS 6 Xposition Yposition Zposition Zrotation Xrotation Yrotation
      JOINT Spine2
      {
        OFFSET 12.3432 -1.8e-05 0
        CHANNELS 6 Xposition Yposition Zposition Zrotation Xrotation Yrotation
        JOINT Neck
        {
          OFFSET 25.8329 2.3e-05 0
          CHANNELS 6 Xposition Yposition Zposition Zrotation Xrotation Yrotation
          JOINT Head
          {
            OFFSET 11.7666 0 0
            CHANNELS 6 Xposition Yposition Zposition Zrotation Xrotation Yrotation
            End Site
            {
              OFFSET 0 0 0
            }
          }
        }
        JOINT LeftShoulder
        {
          OFFSET 19.7459 -1.48035 6.0001
          CHANNELS 6 Xposition Yposition Zposition Zrotation Xrotation Yrotation
          JOINT LeftArm
          {
            OFFSET 11.2841 1.8e-05 -2e-05
            CHANNELS 6 Xposition Yposition Zposition Zrotation Xrotation Yrotation
            JOINT LeftForeArm
            {
              OFFSET 33 -1.3e-05 1.9e-05
              CHANNELS 6 Xposition Yposition Zposition Zrotation Xrotation Yrotation
              JOINT LeftHand
              {
                OFFSET 25.2 3.2e-05 1.1e-05
                CHANNELS 6 Xposition Yposition Zposition Zrotation Xrotation Yrotation
                End Site
                {
                  OFFSET 0 0 0
                }
              }
            }
          }
        }
        JOINT RightShoulder
        {
          OFFSET 19.7461 -1.48036 -6.00008
          CHANNELS 6 Xposition Yposition Zposition Zrotation Xrotation Yrotation
          JOINT RightArm
          {
            OFFSET 11.2841 0 0
            CHANNELS 6 Xposition Yposition Zposition Zrotation Xrotation Yrotation
            JOINT RightForeArm
            {
              OFFSET 33.0001 1.6e-05 0
              CHANNELS 6 Xposition Yposition Zposition Zrotation Xrotation Yrotation
              JOINT RightHand
              {
                OFFSET 25.1998 0.000123 0.000432
                CHANNELS 6 Xposition Yposition Zposition Zrotation Xrotation Yrotation
                End Site
                {
                  OFFSET 0 0 0
                }
              }
            }
          }
        }
      }
    }
  }
}
MOTION
Frames:	4
Frame Time:	0.0333333
18.5251 91.7525 -0.553234 24.5511 83.2618 67.3768 0.103456 1.85784 10.5485 12.209 5.05675 179.538 43.5 -4.2e-05 1e-05 -6.14285 -10.1005 -1.62987 42.3722 1.9e-05 0 75.8833 0.0634931 5.5972 17.3 -1.33227e-15 3e-06 21.4546 -1e-06 0.003093 0.103456 1.85782 -10.5485 3.98691 -14.5535 173.642 43.5 -2.7e-05 4e-06 -17.1918 11.4415 2.34921 42.3723 0 1e-05 82.0243 7.30781 -6.09398 17.3 -6e-06 1.7e-05 21.4546 -1.9e-05 -0.003116 6.90197 -2.60373 -3e-06 6.97753 0.292494 -0.162102 12.5881 1e-05 8e-06 3.93593 0.613739 -0.340316 12.3432 -1.8e-05 -5e-06 3.60963 0.64833 -0.368058 25.8329 2.3e-05 7e-06 5.89223 -1.73063 -6.11862 11.7666 -8e-06 -6e-06 -19.4428 -6.70112 11.38 19.7459 -1.48035 6.0001 175.43 -2.07082 -94.3874 11.2841 1.8e-05 -2e-05 10.3914 -20.055 19.2423 33 -1.3e-05 1.9e-05 -20.7631 -1.09246 -18.8204 25.2 3.2e-05 1.1e-05 11.6132 28.9115 -3.04642 19.7461 -1.48036 -6.00008 177.605 6.85682 92.1214 11.2841 0 -1e-06 -0.62064 8.70301 -9.00098 33.0001 1.6e-05 -1e-06 -23.3967 1.86863 16.4949 25.1998 0.000123 0.000432 7.63787 -12.2917 2.1992 
18.5406 91.7505 -0.569703 24.5516 83.2618 67.3763 0.103456 1.85784 10.5485 12.1951 5.07148 179.499 43.5 -4.2e-05 1e-05 -6.14268 -10.0946 -1.62984 42.3722 1.9e-05 0 75.9303 0.0996751 5.58227 17.3 0 3e-06 21.4546 -1e-06 0.003093 0.103456 1.85782 -10.5485 3.95573 -14.5383 173.61 43.5 -2.7e-05 4e-06 -17.1873 11.4497 2.33928 42.3723 -3.55271e-15 1e-05 82.0734 7.28545 -6.1139 17.3 -6e-06 1.7e-05 21.4546 -1.9e-05 -0.003116 6.90197 -2.60373 -3e-06 7.001 0.282077 -0.151547 12.5881 1e-05 8e-06 3.9829 0.594848 -0.317876 12.3432 -1.8e-05 -5e-06 3.65679 0.631574 -0.344405 25.8329 2.3e-05 7e-06 5.80968 -1.8333 -6.07765 11.7666 -8e-06 -6e-06 -19.2994 -6.78773 11.2939 19.7459 -1.48035 6.0001 175.398 -2.12863 -94.2985 11.2841 1.8e-05 -2e-05 10.4724 -20.1342 19.5566 33 -1.3e-05 1.9e-05 -20.6673 -1.01643 -18.8434 25.2 3.2e-05 1.1e-05 11.7019 28.9255 -3.05264 19.7461 -1.48036 -6.00008 177.713 6.8836 91.8523 11.2841 0 -1e-06 -0.808427 8.2421 -8.93313 33.0001 1.6e-05 -1e-06 -23.5435 1.57502 16.4748 25.1998 0.000123 0.000432 7.42143 -12.3995 2.19224 
18.6118 91.7455 -0.595166 24.8067 83.2489 67.1165 0.103456 1.85784 10.5485 12.1708 5.09368 179.464 43.5 -4.2e-05 1e-05 -6.14466 -10.1113 -1.62993 42.3722 1.9e-05 -7.10543e-15 75.9756 0.128145 5.57649 17.3 0 3e-06 21.4546 -1e-06 0.003093 0.103456 1.85782 -10.5485 3.92533 -14.5003 173.577 43.5 -2.7e-05 4e-06 -17.1571 11.4229 2.34094 42.3723 0 1e-05 82.0136 7.38664 -6.10074 17.3 -6e-06 1.7e-05 21.4546 -1.9e-05 -0.003116 6.90197 -2.60373 -3e-06 7.0154 0.276486 -0.142325 12.5881 1e-05 8e-06 4.01175 0.585233 -0.29874 12.3432 -1.8e-05 -5e-06 3.68572 0.623582 -0.324666 25.8329 2.3e-05 7e-06 5.78834 -1.9105 -6.05277 11.7666 -8e-06 -6e-06 -19.0687 -6.81934 11.2111 19.7459 -1.48035 6.0001 175.408 -2.15804 -94.2376 11.2841 1.8e-05 -2e-05 10.568 -20.1407 19.848 33 -1.3e-05 1.9e-05 -20.4235 -0.928294 -18.8477 25.2 3.2e-05 1.1e-05 11.6341 28.9267 -2.91394 19.7461 -1.48036 -6.00008 177.704 6.85798 91.7764 11.2841 0 -1e-06 -0.911007 8.2875 -9.102 33.0001 1.6e-05 -1e-06 -23.4447 1.55549 16.4037 25.1998 0.000123 0.000432 7.32482 -12.3365 2.12386 
18.6861 91.7419 -0.618673 25.318 83.2223 66.5913 0.103456 1.85784 10.5485 12.172 5.11638 179.421 43.5 -4.2e-05 1e-05 -6.15387 -10.1365 -1.63005 42.3722 1.9e-05 0 76.0562 0.147116 5.58954 17.3 -8.88178e-16 3e-06 21.4546 -1e-06 0.003093 0.103456 1.85782 -10.5485 3.86787 -14.4811 173.535 43.5 -2.7e-05 4e-06 -17.1997 11.4021 2.33099 42.3723 0 1e-05 82.043 7.38689 -6.06767 17.3 -6e-06 1.7e-05 21.4546 -1.9e-05 -0.003116 6.90197 -2.60373 -3e-06 7.02976 0.275977 -0.126154 12.5881 1e-05 8e-06 4.04035 0.57922 -0.265922 12.3432 -1.8e-05 -5e-06 3.71427 0.620058 -0.291483 25.8329 2.3e-05 7e-06 5.79021 -1.97086 -6.05175 11.7666 -8e-06 -6e-06 -18.8141 -6.79201 11.1118 19.7459 -1.48035 6.0001 175.45 -2.12744 -94.2269 11.2841 1.8e-05 -2e-05 10.7493 -20.2027 20.1935 33 -1.3e-05 1.9e-05 -20.0618 -0.785529 -18.916 25.2 3.2e-05 1.1e-05 11.719 28.9773 -2.82081 19.7461 -1.48036 -6.00008 177.668 6.80584 91.784 11.2841 0 -1e-06 -1.08834 8.3154 -9.10512 33.0001 1.6e-05 -1e-06 -23.0662 1.5422 16.2282 25.1998 0.000123 0.000432 7.40076 -12.2715 1.93788 
